<svg width="550" height="510" viewBox="0 0 550 510" fill="none" xmlns="http://www.w3.org/2000/svg">
<circle cx="181" cy="80" r="79.5" fill="white" stroke="#F72585"/>
<circle cx="369" cy="80" r="79.5" fill="white" stroke="#F72585"/>
<path d="M320.781 88V72.38H326.325C328.012 72.38 329.413 72.732 330.527 73.436C331.657 74.1253 332.507 75.064 333.079 76.252C333.651 77.4253 333.937 78.7307 333.937 80.168C333.937 81.752 333.622 83.1307 332.991 84.304C332.361 85.4773 331.473 86.3867 330.329 87.032C329.2 87.6773 327.865 88 326.325 88H320.781ZM331.429 80.168C331.429 79.068 331.224 78.1 330.813 77.264C330.417 76.428 329.838 75.768 329.075 75.284C328.327 74.8 327.411 74.558 326.325 74.558H323.245V85.822H326.325C327.425 85.822 328.349 85.5727 329.097 85.074C329.86 84.5753 330.439 83.9007 330.835 83.05C331.231 82.1993 331.429 81.2387 331.429 80.168ZM341.436 88.22C340.248 88.22 339.206 87.9487 338.312 87.406C337.417 86.8633 336.72 86.1447 336.222 85.25C335.723 84.3407 335.474 83.3507 335.474 82.28C335.474 81.1947 335.723 80.1973 336.222 79.288C336.72 78.3787 337.417 77.6527 338.312 77.11C339.206 76.5673 340.255 76.296 341.458 76.296C342.66 76.296 343.702 76.5747 344.582 77.132C345.462 77.6747 346.136 78.3933 346.606 79.288C347.09 80.1827 347.332 81.1433 347.332 82.17C347.332 82.5367 347.31 82.83 347.266 83.05H338.048C338.092 83.7247 338.275 84.3187 338.598 84.832C338.935 85.3307 339.353 85.7267 339.852 86.02C340.365 86.2987 340.922 86.438 341.524 86.438C342.169 86.438 342.778 86.2767 343.35 85.954C343.922 85.6313 344.318 85.206 344.538 84.678L346.606 85.272C346.21 86.1373 345.55 86.8487 344.626 87.406C343.716 87.9487 342.653 88.22 341.436 88.22ZM337.982 81.444H344.934C344.875 80.784 344.684 80.2047 344.362 79.706C344.039 79.1927 343.621 78.7967 343.108 78.518C342.609 78.2247 342.052 78.078 341.436 78.078C340.834 78.078 340.277 78.2247 339.764 78.518C339.265 78.7967 338.854 79.1927 338.532 79.706C338.209 80.2047 338.026 80.784 337.982 81.444ZM349.858 78.65H348.318V76.78H349.858V76.318C349.858 75.526 350.027 74.778 350.364 74.074C350.701 73.37 351.2 72.8053 351.86 72.38C352.535 71.94 353.356 71.72 354.324 71.72C355.145 71.72 355.879 71.852 356.524 72.116C357.184 72.38 357.756 72.6733 358.24 72.996L357.25 74.8C356.913 74.5067 356.495 74.2647 355.996 74.074C355.512 73.8833 355.006 73.788 354.478 73.788C353.965 73.788 353.547 73.9053 353.224 74.14C352.901 74.3747 352.659 74.6827 352.498 75.064C352.351 75.4453 352.278 75.8413 352.278 76.252V76.78H358.306V88H355.886V78.65H352.278V88H349.858V78.65ZM371.526 88H369.106V81.554C369.106 80.4687 368.93 79.684 368.578 79.2C368.241 78.7013 367.735 78.452 367.06 78.452C366.591 78.452 366.121 78.5693 365.652 78.804C365.197 79.0387 364.787 79.3613 364.42 79.772C364.053 80.1827 363.789 80.6447 363.628 81.158V88H361.208V76.494H363.408V78.804C363.848 78.0413 364.486 77.4327 365.322 76.978C366.158 76.5233 367.082 76.296 368.094 76.296C369.003 76.296 369.707 76.516 370.206 76.956C370.705 77.3813 371.049 77.946 371.24 78.65C371.431 79.354 371.526 80.1313 371.526 80.982V88ZM374.335 74.602V71.94H376.755V74.602H374.335ZM374.335 88V76.494H376.755V88H374.335ZM386.065 87.406C385.757 87.5527 385.332 87.7213 384.789 87.912C384.246 88.088 383.667 88.176 383.051 88.176C382.288 88.176 381.628 87.9707 381.071 87.56C380.528 87.1493 380.257 86.482 380.257 85.558V78.364H378.739V76.494H380.257V72.71H382.677V76.494H385.185V78.364H382.677V84.788C382.706 85.1987 382.831 85.4993 383.051 85.69C383.286 85.866 383.572 85.954 383.909 85.954C384.246 85.954 384.569 85.8953 384.877 85.778C385.185 85.6607 385.412 85.5653 385.559 85.492L386.065 87.406ZM387.741 74.602V71.94H390.161V74.602H387.741ZM387.741 88V76.494H390.161V88H387.741ZM398.239 88.22C397.037 88.22 395.988 87.9487 395.093 87.406C394.213 86.8487 393.531 86.1227 393.047 85.228C392.563 84.3187 392.321 83.3287 392.321 82.258C392.321 81.1873 392.563 80.2047 393.047 79.31C393.546 78.4007 394.235 77.6747 395.115 77.132C396.01 76.5747 397.051 76.296 398.239 76.296C399.427 76.296 400.461 76.5747 401.341 77.132C402.236 77.6747 402.925 78.4007 403.409 79.31C403.908 80.2047 404.157 81.1873 404.157 82.258C404.157 83.3287 403.915 84.3187 403.431 85.228C402.947 86.1227 402.258 86.8487 401.363 87.406C400.483 87.9487 399.442 88.22 398.239 88.22ZM394.807 82.28C394.807 83.0133 394.961 83.6733 395.269 84.26C395.577 84.8467 395.988 85.3087 396.501 85.646C397.015 85.9833 397.594 86.152 398.239 86.152C398.87 86.152 399.442 85.9833 399.955 85.646C400.483 85.294 400.901 84.8247 401.209 84.238C401.517 83.6513 401.671 82.9913 401.671 82.258C401.671 81.5247 401.517 80.8647 401.209 80.278C400.901 79.6913 400.483 79.2293 399.955 78.892C399.442 78.54 398.87 78.364 398.239 78.364C397.609 78.364 397.029 78.54 396.501 78.892C395.988 79.2293 395.577 79.6987 395.269 80.3C394.961 80.8867 394.807 81.5467 394.807 82.28ZM416.622 88H414.202V81.554C414.202 80.4687 414.026 79.684 413.674 79.2C413.336 78.7013 412.83 78.452 412.156 78.452C411.686 78.452 411.217 78.5693 410.748 78.804C410.293 79.0387 409.882 79.3613 409.516 79.772C409.149 80.1827 408.885 80.6447 408.724 81.158V88H406.304V76.494H408.504V78.804C408.944 78.0413 409.582 77.4327 410.418 76.978C411.254 76.5233 412.178 76.296 413.19 76.296C414.099 76.296 414.803 76.516 415.302 76.956C415.8 77.3813 416.145 77.946 416.336 78.65C416.526 79.354 416.622 80.1313 416.622 80.982V88Z" fill="#F72585"/>
<circle cx="181" cy="255" r="79.5" fill="white" stroke="#F72585"/>
<path d="M140.253 263V247.38H142.717V263H140.253ZM145.041 257.258C145.041 256.158 145.261 255.161 145.701 254.266C146.156 253.357 146.772 252.638 147.549 252.11C148.327 251.567 149.221 251.296 150.233 251.296C151.113 251.296 151.905 251.523 152.609 251.978C153.328 252.433 153.885 252.997 154.281 253.672V246.94H156.701V260.272C156.701 260.551 156.753 260.749 156.855 260.866C156.958 260.983 157.127 261.049 157.361 261.064V263C156.907 263.073 156.555 263.11 156.305 263.11C155.851 263.11 155.462 262.985 155.139 262.736C154.831 262.472 154.67 262.149 154.655 261.768L154.633 260.91C154.193 261.643 153.599 262.215 152.851 262.626C152.103 263.022 151.326 263.22 150.519 263.22C149.463 263.22 148.517 262.949 147.681 262.406C146.86 261.863 146.215 261.145 145.745 260.25C145.276 259.341 145.041 258.343 145.041 257.258ZM154.281 258.864V255.85C154.105 255.381 153.841 254.963 153.489 254.596C153.137 254.215 152.734 253.914 152.279 253.694C151.839 253.474 151.399 253.364 150.959 253.364C150.27 253.364 149.669 253.555 149.155 253.936C148.657 254.303 148.261 254.787 147.967 255.388C147.689 255.989 147.549 256.627 147.549 257.302C147.549 258.006 147.703 258.651 148.011 259.238C148.334 259.825 148.767 260.294 149.309 260.646C149.852 260.983 150.461 261.152 151.135 261.152C151.546 261.152 151.971 261.057 152.411 260.866C152.866 260.661 153.262 260.389 153.599 260.052C153.937 259.7 154.164 259.304 154.281 258.864ZM164.989 263.22C163.801 263.22 162.76 262.949 161.865 262.406C160.971 261.863 160.274 261.145 159.775 260.25C159.277 259.341 159.027 258.351 159.027 257.28C159.027 256.195 159.277 255.197 159.775 254.288C160.274 253.379 160.971 252.653 161.865 252.11C162.76 251.567 163.809 251.296 165.011 251.296C166.214 251.296 167.255 251.575 168.135 252.132C169.015 252.675 169.69 253.393 170.159 254.288C170.643 255.183 170.885 256.143 170.885 257.17C170.885 257.537 170.863 257.83 170.819 258.05H161.601C161.645 258.725 161.829 259.319 162.151 259.832C162.489 260.331 162.907 260.727 163.405 261.02C163.919 261.299 164.476 261.438 165.077 261.438C165.723 261.438 166.331 261.277 166.903 260.954C167.475 260.631 167.871 260.206 168.091 259.678L170.159 260.272C169.763 261.137 169.103 261.849 168.179 262.406C167.27 262.949 166.207 263.22 164.989 263.22ZM161.535 256.444H168.487C168.429 255.784 168.238 255.205 167.915 254.706C167.593 254.193 167.175 253.797 166.661 253.518C166.163 253.225 165.605 253.078 164.989 253.078C164.388 253.078 163.831 253.225 163.317 253.518C162.819 253.797 162.408 254.193 162.085 254.706C161.763 255.205 161.579 255.784 161.535 256.444ZM172.023 259.634C172.023 258.901 172.229 258.263 172.639 257.72C173.05 257.163 173.622 256.737 174.355 256.444C175.103 256.136 175.961 255.982 176.929 255.982C177.443 255.982 177.963 256.026 178.491 256.114C179.034 256.187 179.511 256.297 179.921 256.444V255.718C179.921 254.911 179.679 254.281 179.195 253.826C178.711 253.371 178.015 253.144 177.105 253.144C176.475 253.144 175.866 253.254 175.279 253.474C174.693 253.694 174.084 254.017 173.453 254.442L172.639 252.814C173.402 252.315 174.165 251.941 174.927 251.692C175.705 251.428 176.519 251.296 177.369 251.296C178.909 251.296 180.119 251.707 180.999 252.528C181.894 253.335 182.341 254.486 182.341 255.982V260.272C182.341 260.551 182.385 260.749 182.473 260.866C182.576 260.983 182.745 261.049 182.979 261.064V263C182.759 263.044 182.561 263.073 182.385 263.088C182.209 263.103 182.063 263.11 181.945 263.11C181.417 263.11 181.021 262.985 180.757 262.736C180.508 262.472 180.361 262.179 180.317 261.856L180.251 261.196C179.753 261.841 179.115 262.34 178.337 262.692C177.56 263.044 176.775 263.22 175.983 263.22C175.221 263.22 174.539 263.066 173.937 262.758C173.336 262.435 172.867 262.003 172.529 261.46C172.192 260.917 172.023 260.309 172.023 259.634ZM179.349 260.338C179.731 259.957 179.921 259.597 179.921 259.26V257.94C179.056 257.617 178.176 257.456 177.281 257.456C176.401 257.456 175.683 257.639 175.125 258.006C174.583 258.358 174.311 258.835 174.311 259.436C174.311 259.935 174.509 260.397 174.905 260.822C175.316 261.233 175.903 261.438 176.665 261.438C177.179 261.438 177.677 261.335 178.161 261.13C178.645 260.925 179.041 260.661 179.349 260.338ZM191.593 262.406C191.285 262.553 190.86 262.721 190.317 262.912C189.775 263.088 189.195 263.176 188.579 263.176C187.817 263.176 187.157 262.971 186.599 262.56C186.057 262.149 185.785 261.482 185.785 260.558V253.364H184.267V251.494H185.785V247.71H188.205V251.494H190.713V253.364H188.205V259.788C188.235 260.199 188.359 260.499 188.579 260.69C188.814 260.866 189.1 260.954 189.437 260.954C189.775 260.954 190.097 260.895 190.405 260.778C190.713 260.661 190.941 260.565 191.087 260.492L191.593 262.406ZM193.269 249.602V246.94H195.689V249.602H193.269ZM193.269 263V251.494H195.689V263H193.269ZM203.768 263.22C202.565 263.22 201.516 262.949 200.622 262.406C199.742 261.849 199.06 261.123 198.576 260.228C198.092 259.319 197.85 258.329 197.85 257.258C197.85 256.187 198.092 255.205 198.576 254.31C199.074 253.401 199.764 252.675 200.644 252.132C201.538 251.575 202.58 251.296 203.768 251.296C204.956 251.296 205.99 251.575 206.87 252.132C207.764 252.675 208.454 253.401 208.938 254.31C209.436 255.205 209.686 256.187 209.686 257.258C209.686 258.329 209.444 259.319 208.96 260.228C208.476 261.123 207.786 261.849 206.892 262.406C206.012 262.949 204.97 263.22 203.768 263.22ZM200.336 257.28C200.336 258.013 200.49 258.673 200.798 259.26C201.106 259.847 201.516 260.309 202.03 260.646C202.543 260.983 203.122 261.152 203.768 261.152C204.398 261.152 204.97 260.983 205.484 260.646C206.012 260.294 206.43 259.825 206.738 259.238C207.046 258.651 207.2 257.991 207.2 257.258C207.2 256.525 207.046 255.865 206.738 255.278C206.43 254.691 206.012 254.229 205.484 253.892C204.97 253.54 204.398 253.364 203.768 253.364C203.137 253.364 202.558 253.54 202.03 253.892C201.516 254.229 201.106 254.699 200.798 255.3C200.49 255.887 200.336 256.547 200.336 257.28ZM222.15 263H219.73V256.554C219.73 255.469 219.554 254.684 219.202 254.2C218.865 253.701 218.359 253.452 217.684 253.452C217.215 253.452 216.745 253.569 216.276 253.804C215.821 254.039 215.411 254.361 215.044 254.772C214.677 255.183 214.413 255.645 214.252 256.158V263H211.832V251.494H214.032V253.804C214.472 253.041 215.11 252.433 215.946 251.978C216.782 251.523 217.706 251.296 218.718 251.296C219.627 251.296 220.331 251.516 220.83 251.956C221.329 252.381 221.673 252.946 221.864 253.65C222.055 254.354 222.15 255.131 222.15 255.982V263Z" fill="#F72585"/>
<circle cx="369" cy="255" r="79.5" fill="white" stroke="#F72585"/>
<path d="M309.766 263V247.38H316.322C317.026 247.38 317.671 247.527 318.258 247.82C318.859 248.113 319.373 248.502 319.798 248.986C320.238 249.47 320.575 250.013 320.81 250.614C321.045 251.215 321.162 251.831 321.162 252.462C321.162 253.342 320.964 254.171 320.568 254.948C320.172 255.725 319.622 256.356 318.918 256.84C318.214 257.324 317.393 257.566 316.454 257.566H312.23V263H309.766ZM312.23 255.388H316.3C316.989 255.388 317.554 255.109 317.994 254.552C318.434 253.995 318.654 253.298 318.654 252.462C318.654 251.89 318.537 251.391 318.302 250.966C318.067 250.526 317.759 250.181 317.378 249.932C317.011 249.683 316.608 249.558 316.168 249.558H312.23V255.388ZM329.633 253.584C328.694 253.613 327.858 253.833 327.125 254.244C326.406 254.64 325.893 255.212 325.585 255.96V263H323.165V251.494H325.409V254.068C325.805 253.276 326.326 252.645 326.971 252.176C327.616 251.692 328.298 251.428 329.017 251.384C329.149 251.384 329.266 251.384 329.369 251.384C329.472 251.384 329.56 251.391 329.633 251.406V253.584ZM336.37 263.22C335.167 263.22 334.119 262.949 333.224 262.406C332.344 261.849 331.662 261.123 331.178 260.228C330.694 259.319 330.452 258.329 330.452 257.258C330.452 256.187 330.694 255.205 331.178 254.31C331.677 253.401 332.366 252.675 333.246 252.132C334.141 251.575 335.182 251.296 336.37 251.296C337.558 251.296 338.592 251.575 339.472 252.132C340.367 252.675 341.056 253.401 341.54 254.31C342.039 255.205 342.288 256.187 342.288 257.258C342.288 258.329 342.046 259.319 341.562 260.228C341.078 261.123 340.389 261.849 339.494 262.406C338.614 262.949 337.573 263.22 336.37 263.22ZM332.938 257.28C332.938 258.013 333.092 258.673 333.4 259.26C333.708 259.847 334.119 260.309 334.632 260.646C335.145 260.983 335.725 261.152 336.37 261.152C337.001 261.152 337.573 260.983 338.086 260.646C338.614 260.294 339.032 259.825 339.34 259.238C339.648 258.651 339.802 257.991 339.802 257.258C339.802 256.525 339.648 255.865 339.34 255.278C339.032 254.691 338.614 254.229 338.086 253.892C337.573 253.54 337.001 253.364 336.37 253.364C335.739 253.364 335.16 253.54 334.632 253.892C334.119 254.229 333.708 254.699 333.4 255.3C333.092 255.887 332.938 256.547 332.938 257.28ZM350.665 262.406C350.357 262.553 349.931 262.721 349.389 262.912C348.846 263.088 348.267 263.176 347.651 263.176C346.888 263.176 346.228 262.971 345.671 262.56C345.128 262.149 344.857 261.482 344.857 260.558V253.364H343.339V251.494H344.857V247.71H347.277V251.494H349.785V253.364H347.277V259.788C347.306 260.199 347.431 260.499 347.651 260.69C347.885 260.866 348.171 260.954 348.509 260.954C348.846 260.954 349.169 260.895 349.477 260.778C349.785 260.661 350.012 260.565 350.159 260.492L350.665 262.406ZM357.36 263.22C356.158 263.22 355.109 262.949 354.214 262.406C353.334 261.849 352.652 261.123 352.168 260.228C351.684 259.319 351.442 258.329 351.442 257.258C351.442 256.187 351.684 255.205 352.168 254.31C352.667 253.401 353.356 252.675 354.236 252.132C355.131 251.575 356.172 251.296 357.36 251.296C358.548 251.296 359.582 251.575 360.462 252.132C361.357 252.675 362.046 253.401 362.53 254.31C363.029 255.205 363.278 256.187 363.278 257.258C363.278 258.329 363.036 259.319 362.552 260.228C362.068 261.123 361.379 261.849 360.484 262.406C359.604 262.949 358.563 263.22 357.36 263.22ZM353.928 257.28C353.928 258.013 354.082 258.673 354.39 259.26C354.698 259.847 355.109 260.309 355.622 260.646C356.136 260.983 356.715 261.152 357.36 261.152C357.991 261.152 358.563 260.983 359.076 260.646C359.604 260.294 360.022 259.825 360.33 259.238C360.638 258.651 360.792 257.991 360.792 257.258C360.792 256.525 360.638 255.865 360.33 255.278C360.022 254.691 359.604 254.229 359.076 253.892C358.563 253.54 357.991 253.364 357.36 253.364C356.73 253.364 356.15 253.54 355.622 253.892C355.109 254.229 354.698 254.699 354.39 255.3C354.082 255.887 353.928 256.547 353.928 257.28ZM371.655 262.406C371.347 262.553 370.921 262.721 370.379 262.912C369.836 263.088 369.257 263.176 368.641 263.176C367.878 263.176 367.218 262.971 366.661 262.56C366.118 262.149 365.847 261.482 365.847 260.558V253.364H364.329V251.494H365.847V247.71H368.267V251.494H370.775V253.364H368.267V259.788C368.296 260.199 368.421 260.499 368.641 260.69C368.875 260.866 369.161 260.954 369.499 260.954C369.836 260.954 370.159 260.895 370.467 260.778C370.775 260.661 371.002 260.565 371.149 260.492L371.655 262.406ZM373.705 265.706C373.925 265.75 374.138 265.787 374.343 265.816C374.563 265.845 374.739 265.86 374.871 265.86C375.121 265.86 375.333 265.779 375.509 265.618C375.7 265.471 375.891 265.193 376.081 264.782C376.272 264.371 376.507 263.777 376.785 263L372.055 251.494H374.585L378.105 260.536L381.229 251.494H383.561L378.347 265.662C378.113 266.307 377.702 266.857 377.115 267.312C376.543 267.767 375.803 267.994 374.893 267.994C374.717 267.994 374.534 267.979 374.343 267.95C374.153 267.921 373.94 267.877 373.705 267.818V265.706ZM391.875 263.22C390.951 263.22 390.137 263 389.433 262.56C388.729 262.12 388.171 261.548 387.761 260.844V267.686H385.341V251.494H387.475V253.562C387.915 252.873 388.487 252.323 389.191 251.912C389.895 251.501 390.679 251.296 391.545 251.296C392.601 251.296 393.532 251.575 394.339 252.132C395.16 252.675 395.805 253.401 396.275 254.31C396.744 255.205 396.979 256.18 396.979 257.236C396.979 258.351 396.759 259.363 396.319 260.272C395.879 261.167 395.277 261.885 394.515 262.428C393.752 262.956 392.872 263.22 391.875 263.22ZM391.083 261.152C391.772 261.152 392.366 260.969 392.865 260.602C393.378 260.221 393.774 259.737 394.053 259.15C394.346 258.549 394.493 257.911 394.493 257.236C394.493 256.532 394.331 255.887 394.009 255.3C393.701 254.713 393.275 254.244 392.733 253.892C392.205 253.54 391.596 253.364 390.907 253.364C390.496 253.364 390.063 253.467 389.609 253.672C389.169 253.877 388.78 254.149 388.443 254.486C388.105 254.823 387.878 255.205 387.761 255.63V258.644C388.054 259.348 388.501 259.942 389.103 260.426C389.719 260.91 390.379 261.152 391.083 261.152ZM399.155 249.602V246.94H401.575V249.602H399.155ZM399.155 263V251.494H401.575V263H399.155ZM414.801 263H412.381V256.554C412.381 255.469 412.205 254.684 411.853 254.2C411.516 253.701 411.01 253.452 410.335 253.452C409.866 253.452 409.397 253.569 408.927 253.804C408.473 254.039 408.062 254.361 407.695 254.772C407.329 255.183 407.065 255.645 406.903 256.158V263H404.483V251.494H406.683V253.804C407.123 253.041 407.761 252.433 408.597 251.978C409.433 251.523 410.357 251.296 411.369 251.296C412.279 251.296 412.983 251.516 413.481 251.956C413.98 252.381 414.325 252.946 414.515 253.65C414.706 254.354 414.801 255.131 414.801 255.982V263ZM422.164 263.11C421.123 263.11 420.206 262.839 419.414 262.296C418.637 261.753 418.021 261.042 417.566 260.162C417.126 259.267 416.906 258.299 416.906 257.258C416.906 256.173 417.134 255.175 417.588 254.266C418.043 253.357 418.666 252.638 419.458 252.11C420.265 251.567 421.196 251.296 422.252 251.296C423.176 251.296 423.983 251.516 424.672 251.956C425.376 252.396 425.956 252.968 426.41 253.672V251.494H428.544V262.67C428.544 263.785 428.273 264.731 427.73 265.508C427.202 266.285 426.476 266.879 425.552 267.29C424.628 267.701 423.587 267.906 422.428 267.906C421.152 267.906 420.089 267.686 419.238 267.246C418.402 266.806 417.698 266.205 417.126 265.442L418.49 264.166C418.93 264.782 419.495 265.251 420.184 265.574C420.888 265.897 421.636 266.058 422.428 266.058C423.088 266.058 423.697 265.933 424.254 265.684C424.826 265.449 425.281 265.083 425.618 264.584C425.956 264.085 426.124 263.447 426.124 262.67V260.91C425.714 261.599 425.149 262.142 424.43 262.538C423.712 262.919 422.956 263.11 422.164 263.11ZM422.956 261.152C423.44 261.152 423.902 261.049 424.342 260.844C424.782 260.624 425.156 260.338 425.464 259.986C425.787 259.634 426.007 259.26 426.124 258.864V255.85C425.831 255.117 425.369 254.523 424.738 254.068C424.122 253.599 423.47 253.364 422.78 253.364C422.076 253.364 421.468 253.555 420.954 253.936C420.456 254.317 420.067 254.816 419.788 255.432C419.51 256.033 419.37 256.664 419.37 257.324C419.37 258.028 419.524 258.673 419.832 259.26C420.155 259.832 420.588 260.294 421.13 260.646C421.673 260.983 422.282 261.152 422.956 261.152Z" fill="#F72585"/>
<circle cx="275" cy="430" r="79.5" fill="white" stroke="#F72585"/>
<path d="M266.63 424.558H261.438V438H258.952V424.558H253.738V422.38H266.63V424.558ZM271.311 438.22C270.123 438.22 269.081 437.949 268.187 437.406C267.292 436.863 266.595 436.145 266.097 435.25C265.598 434.341 265.349 433.351 265.349 432.28C265.349 431.195 265.598 430.197 266.097 429.288C266.595 428.379 267.292 427.653 268.187 427.11C269.081 426.567 270.13 426.296 271.333 426.296C272.535 426.296 273.577 426.575 274.457 427.132C275.337 427.675 276.011 428.393 276.481 429.288C276.965 430.183 277.207 431.143 277.207 432.17C277.207 432.537 277.185 432.83 277.141 433.05H267.923C267.967 433.725 268.15 434.319 268.473 434.832C268.81 435.331 269.228 435.727 269.727 436.02C270.24 436.299 270.797 436.438 271.399 436.438C272.044 436.438 272.653 436.277 273.225 435.954C273.797 435.631 274.193 435.206 274.413 434.678L276.481 435.272C276.085 436.137 275.425 436.849 274.501 437.406C273.591 437.949 272.528 438.22 271.311 438.22ZM267.857 431.444H274.809C274.75 430.784 274.559 430.205 274.237 429.706C273.914 429.193 273.496 428.797 272.983 428.518C272.484 428.225 271.927 428.078 271.311 428.078C270.709 428.078 270.152 428.225 269.639 428.518C269.14 428.797 268.729 429.193 268.407 429.706C268.084 430.205 267.901 430.784 267.857 431.444ZM283.273 438.22C282.305 438.22 281.388 438.059 280.523 437.736C279.657 437.413 278.917 436.944 278.301 436.328L279.203 434.7C279.863 435.287 280.523 435.712 281.183 435.976C281.843 436.24 282.51 436.372 283.185 436.372C283.859 436.372 284.409 436.247 284.835 435.998C285.26 435.734 285.473 435.353 285.473 434.854C285.473 434.502 285.363 434.231 285.143 434.04C284.923 433.849 284.6 433.695 284.175 433.578C283.764 433.461 283.265 433.314 282.679 433.138C281.857 432.889 281.168 432.632 280.611 432.368C280.053 432.089 279.635 431.752 279.357 431.356C279.078 430.96 278.939 430.454 278.939 429.838C278.939 428.723 279.357 427.858 280.193 427.242C281.029 426.611 282.121 426.296 283.471 426.296C284.307 426.296 285.077 426.428 285.781 426.692C286.499 426.941 287.13 427.337 287.673 427.88L286.639 429.486C285.641 428.577 284.541 428.122 283.339 428.122C282.811 428.122 282.319 428.225 281.865 428.43C281.425 428.635 281.205 429.017 281.205 429.574C281.205 430.043 281.403 430.381 281.799 430.586C282.195 430.791 282.781 431.011 283.559 431.246C284.439 431.51 285.194 431.774 285.825 432.038C286.47 432.287 286.961 432.617 287.299 433.028C287.651 433.424 287.827 433.974 287.827 434.678C287.827 435.793 287.409 436.665 286.573 437.296C285.737 437.912 284.637 438.22 283.273 438.22ZM296.368 437.406C296.06 437.553 295.634 437.721 295.092 437.912C294.549 438.088 293.97 438.176 293.354 438.176C292.591 438.176 291.931 437.971 291.374 437.56C290.831 437.149 290.56 436.482 290.56 435.558V428.364H289.042V426.494H290.56V422.71H292.98V426.494H295.488V428.364H292.98V434.788C293.009 435.199 293.134 435.499 293.354 435.69C293.588 435.866 293.874 435.954 294.212 435.954C294.549 435.954 294.872 435.895 295.18 435.778C295.488 435.661 295.715 435.565 295.862 435.492L296.368 437.406Z" fill="#F72585"/>
<path d="M147.621 85.822V88H136.907V72.38H147.423V74.558H139.371V79.002H146.345V81.048H139.371V85.822H147.621ZM167.369 88H164.949V81.554C164.949 80.498 164.773 79.7207 164.421 79.222C164.069 78.7087 163.556 78.452 162.881 78.452C162.207 78.452 161.576 78.7087 160.989 79.222C160.417 79.7207 160.014 80.3733 159.779 81.18V88H157.359V81.554C157.359 80.4687 157.183 79.684 156.831 79.2C156.479 78.7013 155.973 78.452 155.313 78.452C154.639 78.452 154.008 78.7013 153.421 79.2C152.849 79.6987 152.439 80.3513 152.189 81.158V88H149.769V76.494H151.969V78.804C152.409 77.9973 153.003 77.3813 153.751 76.956C154.499 76.516 155.35 76.296 156.303 76.296C157.257 76.296 158.005 76.5453 158.547 77.044C159.105 77.5427 159.449 78.166 159.581 78.914C160.579 77.1687 162.023 76.296 163.915 76.296C164.825 76.296 165.529 76.516 166.027 76.956C166.526 77.3813 166.871 77.9533 167.061 78.672C167.267 79.376 167.369 80.146 167.369 80.982V88ZM176.692 88.22C175.768 88.22 174.954 88 174.25 87.56C173.546 87.12 172.989 86.548 172.578 85.844V92.686H170.158V76.494H172.292V78.562C172.732 77.8727 173.304 77.3227 174.008 76.912C174.712 76.5013 175.497 76.296 176.362 76.296C177.418 76.296 178.349 76.5747 179.156 77.132C179.977 77.6747 180.623 78.4007 181.092 79.31C181.561 80.2047 181.796 81.18 181.796 82.236C181.796 83.3507 181.576 84.3627 181.136 85.272C180.696 86.1667 180.095 86.8853 179.332 87.428C178.569 87.956 177.689 88.22 176.692 88.22ZM175.9 86.152C176.589 86.152 177.183 85.9687 177.682 85.602C178.195 85.2207 178.591 84.7367 178.87 84.15C179.163 83.5487 179.31 82.9107 179.31 82.236C179.31 81.532 179.149 80.8867 178.826 80.3C178.518 79.7133 178.093 79.244 177.55 78.892C177.022 78.54 176.413 78.364 175.724 78.364C175.313 78.364 174.881 78.4667 174.426 78.672C173.986 78.8773 173.597 79.1487 173.26 79.486C172.923 79.8233 172.695 80.2047 172.578 80.63V83.644C172.871 84.348 173.319 84.942 173.92 85.426C174.536 85.91 175.196 86.152 175.9 86.152ZM183.137 84.634C183.137 83.9007 183.342 83.2627 183.753 82.72C184.163 82.1627 184.735 81.7373 185.469 81.444C186.217 81.136 187.075 80.982 188.043 80.982C188.556 80.982 189.077 81.026 189.605 81.114C190.147 81.1873 190.624 81.2973 191.035 81.444V80.718C191.035 79.9113 190.793 79.2807 190.309 78.826C189.825 78.3713 189.128 78.144 188.219 78.144C187.588 78.144 186.979 78.254 186.393 78.474C185.806 78.694 185.197 79.0167 184.567 79.442L183.753 77.814C184.515 77.3153 185.278 76.9413 186.041 76.692C186.818 76.428 187.632 76.296 188.483 76.296C190.023 76.296 191.233 76.7067 192.113 77.528C193.007 78.3347 193.455 79.486 193.455 80.982V85.272C193.455 85.5507 193.499 85.7487 193.587 85.866C193.689 85.9833 193.858 86.0493 194.093 86.064V88C193.873 88.044 193.675 88.0733 193.499 88.088C193.323 88.1027 193.176 88.11 193.059 88.11C192.531 88.11 192.135 87.9853 191.871 87.736C191.621 87.472 191.475 87.1787 191.431 86.856L191.365 86.196C190.866 86.8413 190.228 87.34 189.451 87.692C188.673 88.044 187.889 88.22 187.097 88.22C186.334 88.22 185.652 88.066 185.051 87.758C184.449 87.4353 183.98 87.0027 183.643 86.46C183.305 85.9173 183.137 85.3087 183.137 84.634ZM190.463 85.338C190.844 84.9567 191.035 84.5973 191.035 84.26V82.94C190.169 82.6173 189.289 82.456 188.395 82.456C187.515 82.456 186.796 82.6393 186.239 83.006C185.696 83.358 185.425 83.8347 185.425 84.436C185.425 84.9347 185.623 85.3967 186.019 85.822C186.429 86.2327 187.016 86.438 187.779 86.438C188.292 86.438 188.791 86.3353 189.275 86.13C189.759 85.9247 190.155 85.6607 190.463 85.338ZM202.707 87.406C202.399 87.5527 201.973 87.7213 201.431 87.912C200.888 88.088 200.309 88.176 199.693 88.176C198.93 88.176 198.27 87.9707 197.713 87.56C197.17 87.1493 196.899 86.482 196.899 85.558V78.364H195.381V76.494H196.899V72.71H199.319V76.494H201.827V78.364H199.319V84.788C199.348 85.1987 199.473 85.4993 199.693 85.69C199.927 85.866 200.213 85.954 200.551 85.954C200.888 85.954 201.211 85.8953 201.519 85.778C201.827 85.6607 202.054 85.5653 202.201 85.492L202.707 87.406ZM214.701 88H212.281V81.554C212.281 80.5127 212.09 79.7353 211.709 79.222C211.327 78.7087 210.792 78.452 210.103 78.452C209.663 78.452 209.215 78.5693 208.761 78.804C208.321 79.0387 207.925 79.3613 207.573 79.772C207.221 80.168 206.964 80.63 206.803 81.158V88H204.383V71.94H206.803V78.804C207.243 78.012 207.844 77.396 208.607 76.956C209.369 76.516 210.191 76.296 211.071 76.296C212.024 76.296 212.765 76.516 213.293 76.956C213.821 77.3813 214.187 77.9533 214.393 78.672C214.598 79.376 214.701 80.146 214.701 80.982V88ZM217.669 90.706C217.889 90.75 218.102 90.7867 218.307 90.816C218.527 90.8453 218.703 90.86 218.835 90.86C219.085 90.86 219.297 90.7793 219.473 90.618C219.664 90.4713 219.855 90.1927 220.045 89.782C220.236 89.3713 220.471 88.7773 220.749 88L216.019 76.494H218.549L222.069 85.536L225.193 76.494H227.525L222.311 90.662C222.077 91.3073 221.666 91.8573 221.079 92.312C220.507 92.7667 219.767 92.994 218.857 92.994C218.681 92.994 218.498 92.9793 218.307 92.95C218.117 92.9207 217.904 92.8767 217.669 92.818V90.706Z" fill="#F72585"/>
</svg>
