<svg width="920" height="160" viewBox="0 0 920 160" fill="none" xmlns="http://www.w3.org/2000/svg">
<circle cx="80" cy="80" r="79.5" fill="white" stroke="#F72585"/>
<circle cx="268" cy="80" r="79.5" fill="white" stroke="#F72585"/>
<path d="M219.781 88V72.38H225.325C227.012 72.38 228.413 72.732 229.527 73.436C230.657 74.1253 231.507 75.064 232.079 76.252C232.651 77.4253 232.937 78.7307 232.937 80.168C232.937 81.752 232.622 83.1307 231.991 84.304C231.361 85.4773 230.473 86.3867 229.329 87.032C228.2 87.6773 226.865 88 225.325 88H219.781ZM230.429 80.168C230.429 79.068 230.224 78.1 229.813 77.264C229.417 76.428 228.838 75.768 228.075 75.284C227.327 74.8 226.411 74.558 225.325 74.558H222.245V85.822H225.325C226.425 85.822 227.349 85.5727 228.097 85.074C228.86 84.5753 229.439 83.9007 229.835 83.05C230.231 82.1993 230.429 81.2387 230.429 80.168ZM240.436 88.22C239.248 88.22 238.206 87.9487 237.312 87.406C236.417 86.8633 235.72 86.1447 235.222 85.25C234.723 84.3407 234.474 83.3507 234.474 82.28C234.474 81.1947 234.723 80.1973 235.222 79.288C235.72 78.3787 236.417 77.6527 237.312 77.11C238.206 76.5673 239.255 76.296 240.458 76.296C241.66 76.296 242.702 76.5747 243.582 77.132C244.462 77.6747 245.136 78.3933 245.606 79.288C246.09 80.1827 246.332 81.1433 246.332 82.17C246.332 82.5367 246.31 82.83 246.266 83.05H237.048C237.092 83.7247 237.275 84.3187 237.598 84.832C237.935 85.3307 238.353 85.7267 238.852 86.02C239.365 86.2987 239.922 86.438 240.524 86.438C241.169 86.438 241.778 86.2767 242.35 85.954C242.922 85.6313 243.318 85.206 243.538 84.678L245.606 85.272C245.21 86.1373 244.55 86.8487 243.626 87.406C242.716 87.9487 241.653 88.22 240.436 88.22ZM236.982 81.444H243.934C243.875 80.784 243.684 80.2047 243.362 79.706C243.039 79.1927 242.621 78.7967 242.108 78.518C241.609 78.2247 241.052 78.078 240.436 78.078C239.834 78.078 239.277 78.2247 238.764 78.518C238.265 78.7967 237.854 79.1927 237.532 79.706C237.209 80.2047 237.026 80.784 236.982 81.444ZM248.858 78.65H247.318V76.78H248.858V76.318C248.858 75.526 249.027 74.778 249.364 74.074C249.701 73.37 250.2 72.8053 250.86 72.38C251.535 71.94 252.356 71.72 253.324 71.72C254.145 71.72 254.879 71.852 255.524 72.116C256.184 72.38 256.756 72.6733 257.24 72.996L256.25 74.8C255.913 74.5067 255.495 74.2647 254.996 74.074C254.512 73.8833 254.006 73.788 253.478 73.788C252.965 73.788 252.547 73.9053 252.224 74.14C251.901 74.3747 251.659 74.6827 251.498 75.064C251.351 75.4453 251.278 75.8413 251.278 76.252V76.78H257.306V88H254.886V78.65H251.278V88H248.858V78.65ZM270.526 88H268.106V81.554C268.106 80.4687 267.93 79.684 267.578 79.2C267.241 78.7013 266.735 78.452 266.06 78.452C265.591 78.452 265.121 78.5693 264.652 78.804C264.197 79.0387 263.787 79.3613 263.42 79.772C263.053 80.1827 262.789 80.6447 262.628 81.158V88H260.208V76.494H262.408V78.804C262.848 78.0413 263.486 77.4327 264.322 76.978C265.158 76.5233 266.082 76.296 267.094 76.296C268.003 76.296 268.707 76.516 269.206 76.956C269.705 77.3813 270.049 77.946 270.24 78.65C270.431 79.354 270.526 80.1313 270.526 80.982V88ZM273.335 74.602V71.94H275.755V74.602H273.335ZM273.335 88V76.494H275.755V88H273.335ZM285.065 87.406C284.757 87.5527 284.332 87.7213 283.789 87.912C283.246 88.088 282.667 88.176 282.051 88.176C281.288 88.176 280.628 87.9707 280.071 87.56C279.528 87.1493 279.257 86.482 279.257 85.558V78.364H277.739V76.494H279.257V72.71H281.677V76.494H284.185V78.364H281.677V84.788C281.706 85.1987 281.831 85.4993 282.051 85.69C282.286 85.866 282.572 85.954 282.909 85.954C283.246 85.954 283.569 85.8953 283.877 85.778C284.185 85.6607 284.412 85.5653 284.559 85.492L285.065 87.406ZM286.741 74.602V71.94H289.161V74.602H286.741ZM286.741 88V76.494H289.161V88H286.741ZM297.239 88.22C296.037 88.22 294.988 87.9487 294.093 87.406C293.213 86.8487 292.531 86.1227 292.047 85.228C291.563 84.3187 291.321 83.3287 291.321 82.258C291.321 81.1873 291.563 80.2047 292.047 79.31C292.546 78.4007 293.235 77.6747 294.115 77.132C295.01 76.5747 296.051 76.296 297.239 76.296C298.427 76.296 299.461 76.5747 300.341 77.132C301.236 77.6747 301.925 78.4007 302.409 79.31C302.908 80.2047 303.157 81.1873 303.157 82.258C303.157 83.3287 302.915 84.3187 302.431 85.228C301.947 86.1227 301.258 86.8487 300.363 87.406C299.483 87.9487 298.442 88.22 297.239 88.22ZM293.807 82.28C293.807 83.0133 293.961 83.6733 294.269 84.26C294.577 84.8467 294.988 85.3087 295.501 85.646C296.015 85.9833 296.594 86.152 297.239 86.152C297.87 86.152 298.442 85.9833 298.955 85.646C299.483 85.294 299.901 84.8247 300.209 84.238C300.517 83.6513 300.671 82.9913 300.671 82.258C300.671 81.5247 300.517 80.8647 300.209 80.278C299.901 79.6913 299.483 79.2293 298.955 78.892C298.442 78.54 297.87 78.364 297.239 78.364C296.609 78.364 296.029 78.54 295.501 78.892C294.988 79.2293 294.577 79.6987 294.269 80.3C293.961 80.8867 293.807 81.5467 293.807 82.28ZM315.622 88H313.202V81.554C313.202 80.4687 313.026 79.684 312.674 79.2C312.336 78.7013 311.83 78.452 311.156 78.452C310.686 78.452 310.217 78.5693 309.748 78.804C309.293 79.0387 308.882 79.3613 308.516 79.772C308.149 80.1827 307.885 80.6447 307.724 81.158V88H305.304V76.494H307.504V78.804C307.944 78.0413 308.582 77.4327 309.418 76.978C310.254 76.5233 311.178 76.296 312.19 76.296C313.099 76.296 313.803 76.516 314.302 76.956C314.8 77.3813 315.145 77.946 315.336 78.65C315.526 79.354 315.622 80.1313 315.622 80.982V88Z" fill="#F72585"/>
<circle cx="460" cy="80" r="79.5" fill="white" stroke="#F72585"/>
<path d="M419.253 88V72.38H421.717V88H419.253ZM424.041 82.258C424.041 81.158 424.261 80.1607 424.701 79.266C425.156 78.3567 425.772 77.638 426.549 77.11C427.327 76.5673 428.221 76.296 429.233 76.296C430.113 76.296 430.905 76.5233 431.609 76.978C432.328 77.4327 432.885 77.9973 433.281 78.672V71.94H435.701V85.272C435.701 85.5507 435.753 85.7487 435.855 85.866C435.958 85.9833 436.127 86.0493 436.361 86.064V88C435.907 88.0733 435.555 88.11 435.305 88.11C434.851 88.11 434.462 87.9853 434.139 87.736C433.831 87.472 433.67 87.1493 433.655 86.768L433.633 85.91C433.193 86.6433 432.599 87.2153 431.851 87.626C431.103 88.022 430.326 88.22 429.519 88.22C428.463 88.22 427.517 87.9487 426.681 87.406C425.86 86.8633 425.215 86.1447 424.745 85.25C424.276 84.3407 424.041 83.3433 424.041 82.258ZM433.281 83.864V80.85C433.105 80.3807 432.841 79.9627 432.489 79.596C432.137 79.2147 431.734 78.914 431.279 78.694C430.839 78.474 430.399 78.364 429.959 78.364C429.27 78.364 428.669 78.5547 428.155 78.936C427.657 79.3027 427.261 79.7867 426.967 80.388C426.689 80.9893 426.549 81.6273 426.549 82.302C426.549 83.006 426.703 83.6513 427.011 84.238C427.334 84.8247 427.767 85.294 428.309 85.646C428.852 85.9833 429.461 86.152 430.135 86.152C430.546 86.152 430.971 86.0567 431.411 85.866C431.866 85.6607 432.262 85.3893 432.599 85.052C432.937 84.7 433.164 84.304 433.281 83.864ZM443.989 88.22C442.801 88.22 441.76 87.9487 440.865 87.406C439.971 86.8633 439.274 86.1447 438.775 85.25C438.277 84.3407 438.027 83.3507 438.027 82.28C438.027 81.1947 438.277 80.1973 438.775 79.288C439.274 78.3787 439.971 77.6527 440.865 77.11C441.76 76.5673 442.809 76.296 444.011 76.296C445.214 76.296 446.255 76.5747 447.135 77.132C448.015 77.6747 448.69 78.3933 449.159 79.288C449.643 80.1827 449.885 81.1433 449.885 82.17C449.885 82.5367 449.863 82.83 449.819 83.05H440.601C440.645 83.7247 440.829 84.3187 441.151 84.832C441.489 85.3307 441.907 85.7267 442.405 86.02C442.919 86.2987 443.476 86.438 444.077 86.438C444.723 86.438 445.331 86.2767 445.903 85.954C446.475 85.6313 446.871 85.206 447.091 84.678L449.159 85.272C448.763 86.1373 448.103 86.8487 447.179 87.406C446.27 87.9487 445.207 88.22 443.989 88.22ZM440.535 81.444H447.487C447.429 80.784 447.238 80.2047 446.915 79.706C446.593 79.1927 446.175 78.7967 445.661 78.518C445.163 78.2247 444.605 78.078 443.989 78.078C443.388 78.078 442.831 78.2247 442.317 78.518C441.819 78.7967 441.408 79.1927 441.085 79.706C440.763 80.2047 440.579 80.784 440.535 81.444ZM451.023 84.634C451.023 83.9007 451.229 83.2627 451.639 82.72C452.05 82.1627 452.622 81.7373 453.355 81.444C454.103 81.136 454.961 80.982 455.929 80.982C456.443 80.982 456.963 81.026 457.491 81.114C458.034 81.1873 458.511 81.2973 458.921 81.444V80.718C458.921 79.9113 458.679 79.2807 458.195 78.826C457.711 78.3713 457.015 78.144 456.105 78.144C455.475 78.144 454.866 78.254 454.279 78.474C453.693 78.694 453.084 79.0167 452.453 79.442L451.639 77.814C452.402 77.3153 453.165 76.9413 453.927 76.692C454.705 76.428 455.519 76.296 456.369 76.296C457.909 76.296 459.119 76.7067 459.999 77.528C460.894 78.3347 461.341 79.486 461.341 80.982V85.272C461.341 85.5507 461.385 85.7487 461.473 85.866C461.576 85.9833 461.745 86.0493 461.979 86.064V88C461.759 88.044 461.561 88.0733 461.385 88.088C461.209 88.1027 461.063 88.11 460.945 88.11C460.417 88.11 460.021 87.9853 459.757 87.736C459.508 87.472 459.361 87.1787 459.317 86.856L459.251 86.196C458.753 86.8413 458.115 87.34 457.337 87.692C456.56 88.044 455.775 88.22 454.983 88.22C454.221 88.22 453.539 88.066 452.937 87.758C452.336 87.4353 451.867 87.0027 451.529 86.46C451.192 85.9173 451.023 85.3087 451.023 84.634ZM458.349 85.338C458.731 84.9567 458.921 84.5973 458.921 84.26V82.94C458.056 82.6173 457.176 82.456 456.281 82.456C455.401 82.456 454.683 82.6393 454.125 83.006C453.583 83.358 453.311 83.8347 453.311 84.436C453.311 84.9347 453.509 85.3967 453.905 85.822C454.316 86.2327 454.903 86.438 455.665 86.438C456.179 86.438 456.677 86.3353 457.161 86.13C457.645 85.9247 458.041 85.6607 458.349 85.338ZM470.593 87.406C470.285 87.5527 469.86 87.7213 469.317 87.912C468.775 88.088 468.195 88.176 467.579 88.176C466.817 88.176 466.157 87.9707 465.599 87.56C465.057 87.1493 464.785 86.482 464.785 85.558V78.364H463.267V76.494H464.785V72.71H467.205V76.494H469.713V78.364H467.205V84.788C467.235 85.1987 467.359 85.4993 467.579 85.69C467.814 85.866 468.1 85.954 468.437 85.954C468.775 85.954 469.097 85.8953 469.405 85.778C469.713 85.6607 469.941 85.5653 470.087 85.492L470.593 87.406ZM472.269 74.602V71.94H474.689V74.602H472.269ZM472.269 88V76.494H474.689V88H472.269ZM482.768 88.22C481.565 88.22 480.516 87.9487 479.622 87.406C478.742 86.8487 478.06 86.1227 477.576 85.228C477.092 84.3187 476.85 83.3287 476.85 82.258C476.85 81.1873 477.092 80.2047 477.576 79.31C478.074 78.4007 478.764 77.6747 479.644 77.132C480.538 76.5747 481.58 76.296 482.768 76.296C483.956 76.296 484.99 76.5747 485.87 77.132C486.764 77.6747 487.454 78.4007 487.938 79.31C488.436 80.2047 488.686 81.1873 488.686 82.258C488.686 83.3287 488.444 84.3187 487.96 85.228C487.476 86.1227 486.786 86.8487 485.892 87.406C485.012 87.9487 483.97 88.22 482.768 88.22ZM479.336 82.28C479.336 83.0133 479.49 83.6733 479.798 84.26C480.106 84.8467 480.516 85.3087 481.03 85.646C481.543 85.9833 482.122 86.152 482.768 86.152C483.398 86.152 483.97 85.9833 484.484 85.646C485.012 85.294 485.43 84.8247 485.738 84.238C486.046 83.6513 486.2 82.9913 486.2 82.258C486.2 81.5247 486.046 80.8647 485.738 80.278C485.43 79.6913 485.012 79.2293 484.484 78.892C483.97 78.54 483.398 78.364 482.768 78.364C482.137 78.364 481.558 78.54 481.03 78.892C480.516 79.2293 480.106 79.6987 479.798 80.3C479.49 80.8867 479.336 81.5467 479.336 82.28ZM501.15 88H498.73V81.554C498.73 80.4687 498.554 79.684 498.202 79.2C497.865 78.7013 497.359 78.452 496.684 78.452C496.215 78.452 495.745 78.5693 495.276 78.804C494.821 79.0387 494.411 79.3613 494.044 79.772C493.677 80.1827 493.413 80.6447 493.252 81.158V88H490.832V76.494H493.032V78.804C493.472 78.0413 494.11 77.4327 494.946 76.978C495.782 76.5233 496.706 76.296 497.718 76.296C498.627 76.296 499.331 76.516 499.83 76.956C500.329 77.3813 500.673 77.946 500.864 78.65C501.055 79.354 501.15 80.1313 501.15 80.982V88Z" fill="#F72585"/>
<circle cx="650" cy="80" r="79.5" fill="white" stroke="#F72585"/>
<path d="M590.766 88V72.38H597.322C598.026 72.38 598.671 72.5267 599.258 72.82C599.859 73.1133 600.373 73.502 600.798 73.986C601.238 74.47 601.575 75.0127 601.81 75.614C602.045 76.2153 602.162 76.8313 602.162 77.462C602.162 78.342 601.964 79.1707 601.568 79.948C601.172 80.7253 600.622 81.356 599.918 81.84C599.214 82.324 598.393 82.566 597.454 82.566H593.23V88H590.766ZM593.23 80.388H597.3C597.989 80.388 598.554 80.1093 598.994 79.552C599.434 78.9947 599.654 78.298 599.654 77.462C599.654 76.89 599.537 76.3913 599.302 75.966C599.067 75.526 598.759 75.1813 598.378 74.932C598.011 74.6827 597.608 74.558 597.168 74.558H593.23V80.388ZM610.633 78.584C609.694 78.6133 608.858 78.8333 608.125 79.244C607.406 79.64 606.893 80.212 606.585 80.96V88H604.165V76.494H606.409V79.068C606.805 78.276 607.326 77.6453 607.971 77.176C608.616 76.692 609.298 76.428 610.017 76.384C610.149 76.384 610.266 76.384 610.369 76.384C610.472 76.384 610.56 76.3913 610.633 76.406V78.584ZM617.37 88.22C616.167 88.22 615.119 87.9487 614.224 87.406C613.344 86.8487 612.662 86.1227 612.178 85.228C611.694 84.3187 611.452 83.3287 611.452 82.258C611.452 81.1873 611.694 80.2047 612.178 79.31C612.677 78.4007 613.366 77.6747 614.246 77.132C615.141 76.5747 616.182 76.296 617.37 76.296C618.558 76.296 619.592 76.5747 620.472 77.132C621.367 77.6747 622.056 78.4007 622.54 79.31C623.039 80.2047 623.288 81.1873 623.288 82.258C623.288 83.3287 623.046 84.3187 622.562 85.228C622.078 86.1227 621.389 86.8487 620.494 87.406C619.614 87.9487 618.573 88.22 617.37 88.22ZM613.938 82.28C613.938 83.0133 614.092 83.6733 614.4 84.26C614.708 84.8467 615.119 85.3087 615.632 85.646C616.145 85.9833 616.725 86.152 617.37 86.152C618.001 86.152 618.573 85.9833 619.086 85.646C619.614 85.294 620.032 84.8247 620.34 84.238C620.648 83.6513 620.802 82.9913 620.802 82.258C620.802 81.5247 620.648 80.8647 620.34 80.278C620.032 79.6913 619.614 79.2293 619.086 78.892C618.573 78.54 618.001 78.364 617.37 78.364C616.739 78.364 616.16 78.54 615.632 78.892C615.119 79.2293 614.708 79.6987 614.4 80.3C614.092 80.8867 613.938 81.5467 613.938 82.28ZM631.665 87.406C631.357 87.5527 630.931 87.7213 630.389 87.912C629.846 88.088 629.267 88.176 628.651 88.176C627.888 88.176 627.228 87.9707 626.671 87.56C626.128 87.1493 625.857 86.482 625.857 85.558V78.364H624.339V76.494H625.857V72.71H628.277V76.494H630.785V78.364H628.277V84.788C628.306 85.1987 628.431 85.4993 628.651 85.69C628.885 85.866 629.171 85.954 629.509 85.954C629.846 85.954 630.169 85.8953 630.477 85.778C630.785 85.6607 631.012 85.5653 631.159 85.492L631.665 87.406ZM638.36 88.22C637.158 88.22 636.109 87.9487 635.214 87.406C634.334 86.8487 633.652 86.1227 633.168 85.228C632.684 84.3187 632.442 83.3287 632.442 82.258C632.442 81.1873 632.684 80.2047 633.168 79.31C633.667 78.4007 634.356 77.6747 635.236 77.132C636.131 76.5747 637.172 76.296 638.36 76.296C639.548 76.296 640.582 76.5747 641.462 77.132C642.357 77.6747 643.046 78.4007 643.53 79.31C644.029 80.2047 644.278 81.1873 644.278 82.258C644.278 83.3287 644.036 84.3187 643.552 85.228C643.068 86.1227 642.379 86.8487 641.484 87.406C640.604 87.9487 639.563 88.22 638.36 88.22ZM634.928 82.28C634.928 83.0133 635.082 83.6733 635.39 84.26C635.698 84.8467 636.109 85.3087 636.622 85.646C637.136 85.9833 637.715 86.152 638.36 86.152C638.991 86.152 639.563 85.9833 640.076 85.646C640.604 85.294 641.022 84.8247 641.33 84.238C641.638 83.6513 641.792 82.9913 641.792 82.258C641.792 81.5247 641.638 80.8647 641.33 80.278C641.022 79.6913 640.604 79.2293 640.076 78.892C639.563 78.54 638.991 78.364 638.36 78.364C637.73 78.364 637.15 78.54 636.622 78.892C636.109 79.2293 635.698 79.6987 635.39 80.3C635.082 80.8867 634.928 81.5467 634.928 82.28ZM652.655 87.406C652.347 87.5527 651.921 87.7213 651.379 87.912C650.836 88.088 650.257 88.176 649.641 88.176C648.878 88.176 648.218 87.9707 647.661 87.56C647.118 87.1493 646.847 86.482 646.847 85.558V78.364H645.329V76.494H646.847V72.71H649.267V76.494H651.775V78.364H649.267V84.788C649.296 85.1987 649.421 85.4993 649.641 85.69C649.875 85.866 650.161 85.954 650.499 85.954C650.836 85.954 651.159 85.8953 651.467 85.778C651.775 85.6607 652.002 85.5653 652.149 85.492L652.655 87.406ZM654.705 90.706C654.925 90.75 655.138 90.7867 655.343 90.816C655.563 90.8453 655.739 90.86 655.871 90.86C656.121 90.86 656.333 90.7793 656.509 90.618C656.7 90.4713 656.891 90.1927 657.081 89.782C657.272 89.3713 657.507 88.7773 657.785 88L653.055 76.494H655.585L659.105 85.536L662.229 76.494H664.561L659.347 90.662C659.113 91.3073 658.702 91.8573 658.115 92.312C657.543 92.7667 656.803 92.994 655.893 92.994C655.717 92.994 655.534 92.9793 655.343 92.95C655.153 92.9207 654.94 92.8767 654.705 92.818V90.706ZM672.875 88.22C671.951 88.22 671.137 88 670.433 87.56C669.729 87.12 669.171 86.548 668.761 85.844V92.686H666.341V76.494H668.475V78.562C668.915 77.8727 669.487 77.3227 670.191 76.912C670.895 76.5013 671.679 76.296 672.545 76.296C673.601 76.296 674.532 76.5747 675.339 77.132C676.16 77.6747 676.805 78.4007 677.275 79.31C677.744 80.2047 677.979 81.18 677.979 82.236C677.979 83.3507 677.759 84.3627 677.319 85.272C676.879 86.1667 676.277 86.8853 675.515 87.428C674.752 87.956 673.872 88.22 672.875 88.22ZM672.083 86.152C672.772 86.152 673.366 85.9687 673.865 85.602C674.378 85.2207 674.774 84.7367 675.053 84.15C675.346 83.5487 675.493 82.9107 675.493 82.236C675.493 81.532 675.331 80.8867 675.009 80.3C674.701 79.7133 674.275 79.244 673.733 78.892C673.205 78.54 672.596 78.364 671.907 78.364C671.496 78.364 671.063 78.4667 670.609 78.672C670.169 78.8773 669.78 79.1487 669.443 79.486C669.105 79.8233 668.878 80.2047 668.761 80.63V83.644C669.054 84.348 669.501 84.942 670.103 85.426C670.719 85.91 671.379 86.152 672.083 86.152ZM680.155 74.602V71.94H682.575V74.602H680.155ZM680.155 88V76.494H682.575V88H680.155ZM695.801 88H693.381V81.554C693.381 80.4687 693.205 79.684 692.853 79.2C692.516 78.7013 692.01 78.452 691.335 78.452C690.866 78.452 690.397 78.5693 689.927 78.804C689.473 79.0387 689.062 79.3613 688.695 79.772C688.329 80.1827 688.065 80.6447 687.903 81.158V88H685.483V76.494H687.683V78.804C688.123 78.0413 688.761 77.4327 689.597 76.978C690.433 76.5233 691.357 76.296 692.369 76.296C693.279 76.296 693.983 76.516 694.481 76.956C694.98 77.3813 695.325 77.946 695.515 78.65C695.706 79.354 695.801 80.1313 695.801 80.982V88ZM703.164 88.11C702.123 88.11 701.206 87.8387 700.414 87.296C699.637 86.7533 699.021 86.042 698.566 85.162C698.126 84.2673 697.906 83.2993 697.906 82.258C697.906 81.1727 698.134 80.1753 698.588 79.266C699.043 78.3567 699.666 77.638 700.458 77.11C701.265 76.5673 702.196 76.296 703.252 76.296C704.176 76.296 704.983 76.516 705.672 76.956C706.376 77.396 706.956 77.968 707.41 78.672V76.494H709.544V87.67C709.544 88.7847 709.273 89.7307 708.73 90.508C708.202 91.2853 707.476 91.8793 706.552 92.29C705.628 92.7007 704.587 92.906 703.428 92.906C702.152 92.906 701.089 92.686 700.238 92.246C699.402 91.806 698.698 91.2047 698.126 90.442L699.49 89.166C699.93 89.782 700.495 90.2513 701.184 90.574C701.888 90.8967 702.636 91.058 703.428 91.058C704.088 91.058 704.697 90.9333 705.254 90.684C705.826 90.4493 706.281 90.0827 706.618 89.584C706.956 89.0853 707.124 88.4473 707.124 87.67V85.91C706.714 86.5993 706.149 87.142 705.43 87.538C704.712 87.9193 703.956 88.11 703.164 88.11ZM703.956 86.152C704.44 86.152 704.902 86.0493 705.342 85.844C705.782 85.624 706.156 85.338 706.464 84.986C706.787 84.634 707.007 84.26 707.124 83.864V80.85C706.831 80.1167 706.369 79.5227 705.738 79.068C705.122 78.5987 704.47 78.364 703.78 78.364C703.076 78.364 702.468 78.5547 701.954 78.936C701.456 79.3173 701.067 79.816 700.788 80.432C700.51 81.0333 700.37 81.664 700.37 82.324C700.37 83.028 700.524 83.6733 700.832 84.26C701.155 84.832 701.588 85.294 702.13 85.646C702.673 85.9833 703.282 86.152 703.956 86.152Z" fill="#F72585"/>
<circle cx="840" cy="80" r="79.5" fill="white" stroke="#F72585"/>
<path d="M831.63 74.558H826.438V88H823.952V74.558H818.738V72.38H831.63V74.558ZM836.311 88.22C835.123 88.22 834.081 87.9487 833.187 87.406C832.292 86.8633 831.595 86.1447 831.097 85.25C830.598 84.3407 830.349 83.3507 830.349 82.28C830.349 81.1947 830.598 80.1973 831.097 79.288C831.595 78.3787 832.292 77.6527 833.187 77.11C834.081 76.5673 835.13 76.296 836.333 76.296C837.535 76.296 838.577 76.5747 839.457 77.132C840.337 77.6747 841.011 78.3933 841.481 79.288C841.965 80.1827 842.207 81.1433 842.207 82.17C842.207 82.5367 842.185 82.83 842.141 83.05H832.923C832.967 83.7247 833.15 84.3187 833.473 84.832C833.81 85.3307 834.228 85.7267 834.727 86.02C835.24 86.2987 835.797 86.438 836.399 86.438C837.044 86.438 837.653 86.2767 838.225 85.954C838.797 85.6313 839.193 85.206 839.413 84.678L841.481 85.272C841.085 86.1373 840.425 86.8487 839.501 87.406C838.591 87.9487 837.528 88.22 836.311 88.22ZM832.857 81.444H839.809C839.75 80.784 839.559 80.2047 839.237 79.706C838.914 79.1927 838.496 78.7967 837.983 78.518C837.484 78.2247 836.927 78.078 836.311 78.078C835.709 78.078 835.152 78.2247 834.639 78.518C834.14 78.7967 833.729 79.1927 833.407 79.706C833.084 80.2047 832.901 80.784 832.857 81.444ZM848.273 88.22C847.305 88.22 846.388 88.0587 845.523 87.736C844.657 87.4133 843.917 86.944 843.301 86.328L844.203 84.7C844.863 85.2867 845.523 85.712 846.183 85.976C846.843 86.24 847.51 86.372 848.185 86.372C848.859 86.372 849.409 86.2473 849.835 85.998C850.26 85.734 850.473 85.3527 850.473 84.854C850.473 84.502 850.363 84.2307 850.143 84.04C849.923 83.8493 849.6 83.6953 849.175 83.578C848.764 83.4607 848.265 83.314 847.679 83.138C846.857 82.8887 846.168 82.632 845.611 82.368C845.053 82.0893 844.635 81.752 844.357 81.356C844.078 80.96 843.939 80.454 843.939 79.838C843.939 78.7233 844.357 77.858 845.193 77.242C846.029 76.6113 847.121 76.296 848.471 76.296C849.307 76.296 850.077 76.428 850.781 76.692C851.499 76.9413 852.13 77.3373 852.673 77.88L851.639 79.486C850.641 78.5767 849.541 78.122 848.339 78.122C847.811 78.122 847.319 78.2247 846.865 78.43C846.425 78.6353 846.205 79.0167 846.205 79.574C846.205 80.0433 846.403 80.3807 846.799 80.586C847.195 80.7913 847.781 81.0113 848.559 81.246C849.439 81.51 850.194 81.774 850.825 82.038C851.47 82.2873 851.961 82.6173 852.299 83.028C852.651 83.424 852.827 83.974 852.827 84.678C852.827 85.7927 852.409 86.6653 851.573 87.296C850.737 87.912 849.637 88.22 848.273 88.22ZM861.368 87.406C861.06 87.5527 860.634 87.7213 860.092 87.912C859.549 88.088 858.97 88.176 858.354 88.176C857.591 88.176 856.931 87.9707 856.374 87.56C855.831 87.1493 855.56 86.482 855.56 85.558V78.364H854.042V76.494H855.56V72.71H857.98V76.494H860.488V78.364H857.98V84.788C858.009 85.1987 858.134 85.4993 858.354 85.69C858.588 85.866 858.874 85.954 859.212 85.954C859.549 85.954 859.872 85.8953 860.18 85.778C860.488 85.6607 860.715 85.5653 860.862 85.492L861.368 87.406Z" fill="#F72585"/>
<path d="M46.6215 85.822V88H35.9075V72.38H46.4235V74.558H38.3715V79.002H45.3455V81.048H38.3715V85.822H46.6215ZM66.3694 88H63.9494V81.554C63.9494 80.498 63.7734 79.7207 63.4214 79.222C63.0694 78.7087 62.556 78.452 61.8814 78.452C61.2067 78.452 60.5761 78.7087 59.9894 79.222C59.4174 79.7207 59.014 80.3733 58.7794 81.18V88H56.3594V81.554C56.3594 80.4687 56.1834 79.684 55.8314 79.2C55.4794 78.7013 54.9734 78.452 54.3134 78.452C53.6387 78.452 53.008 78.7013 52.4214 79.2C51.8494 79.6987 51.4387 80.3513 51.1894 81.158V88H48.7694V76.494H50.9694V78.804C51.4094 77.9973 52.0034 77.3813 52.7514 76.956C53.4994 76.516 54.35 76.296 55.3034 76.296C56.2567 76.296 57.0047 76.5453 57.5474 77.044C58.1047 77.5427 58.4494 78.166 58.5814 78.914C59.5787 77.1687 61.0234 76.296 62.9154 76.296C63.8247 76.296 64.5287 76.516 65.0274 76.956C65.5261 77.3813 65.8707 77.9533 66.0614 78.672C66.2667 79.376 66.3694 80.146 66.3694 80.982V88ZM75.6921 88.22C74.7681 88.22 73.9541 88 73.2501 87.56C72.5461 87.12 71.9887 86.548 71.5781 85.844V92.686H69.1581V76.494H71.2921V78.562C71.7321 77.8727 72.3041 77.3227 73.0081 76.912C73.7121 76.5013 74.4967 76.296 75.3621 76.296C76.4181 76.296 77.3494 76.5747 78.1561 77.132C78.9774 77.6747 79.6227 78.4007 80.0921 79.31C80.5614 80.2047 80.7961 81.18 80.7961 82.236C80.7961 83.3507 80.5761 84.3627 80.1361 85.272C79.6961 86.1667 79.0947 86.8853 78.3321 87.428C77.5694 87.956 76.6894 88.22 75.6921 88.22ZM74.9001 86.152C75.5894 86.152 76.1834 85.9687 76.6821 85.602C77.1954 85.2207 77.5914 84.7367 77.8701 84.15C78.1634 83.5487 78.3101 82.9107 78.3101 82.236C78.3101 81.532 78.1487 80.8867 77.8261 80.3C77.5181 79.7133 77.0927 79.244 76.5501 78.892C76.0221 78.54 75.4134 78.364 74.7241 78.364C74.3134 78.364 73.8807 78.4667 73.4261 78.672C72.9861 78.8773 72.5974 79.1487 72.2601 79.486C71.9227 79.8233 71.6954 80.2047 71.5781 80.63V83.644C71.8714 84.348 72.3187 84.942 72.9201 85.426C73.5361 85.91 74.1961 86.152 74.9001 86.152ZM82.1365 84.634C82.1365 83.9007 82.3418 83.2627 82.7525 82.72C83.1632 82.1627 83.7352 81.7373 84.4685 81.444C85.2165 81.136 86.0745 80.982 87.0425 80.982C87.5558 80.982 88.0765 81.026 88.6045 81.114C89.1472 81.1873 89.6238 81.2973 90.0345 81.444V80.718C90.0345 79.9113 89.7925 79.2807 89.3085 78.826C88.8245 78.3713 88.1278 78.144 87.2185 78.144C86.5878 78.144 85.9792 78.254 85.3925 78.474C84.8058 78.694 84.1972 79.0167 83.5665 79.442L82.7525 77.814C83.5152 77.3153 84.2778 76.9413 85.0405 76.692C85.8178 76.428 86.6318 76.296 87.4825 76.296C89.0225 76.296 90.2325 76.7067 91.1125 77.528C92.0072 78.3347 92.4545 79.486 92.4545 80.982V85.272C92.4545 85.5507 92.4985 85.7487 92.5865 85.866C92.6892 85.9833 92.8578 86.0493 93.0925 86.064V88C92.8725 88.044 92.6745 88.0733 92.4985 88.088C92.3225 88.1027 92.1758 88.11 92.0585 88.11C91.5305 88.11 91.1345 87.9853 90.8705 87.736C90.6212 87.472 90.4745 87.1787 90.4305 86.856L90.3645 86.196C89.8658 86.8413 89.2278 87.34 88.4505 87.692C87.6732 88.044 86.8885 88.22 86.0965 88.22C85.3338 88.22 84.6518 88.066 84.0505 87.758C83.4492 87.4353 82.9798 87.0027 82.6425 86.46C82.3052 85.9173 82.1365 85.3087 82.1365 84.634ZM89.4625 85.338C89.8438 84.9567 90.0345 84.5973 90.0345 84.26V82.94C89.1692 82.6173 88.2892 82.456 87.3945 82.456C86.5145 82.456 85.7958 82.6393 85.2385 83.006C84.6958 83.358 84.4245 83.8347 84.4245 84.436C84.4245 84.9347 84.6225 85.3967 85.0185 85.822C85.4292 86.2327 86.0158 86.438 86.7785 86.438C87.2918 86.438 87.7905 86.3353 88.2745 86.13C88.7585 85.9247 89.1545 85.6607 89.4625 85.338ZM101.707 87.406C101.399 87.5527 100.973 87.7213 100.431 87.912C99.8879 88.088 99.3085 88.176 98.6925 88.176C97.9299 88.176 97.2699 87.9707 96.7125 87.56C96.1699 87.1493 95.8985 86.482 95.8985 85.558V78.364H94.3805V76.494H95.8985V72.71H98.3185V76.494H100.827V78.364H98.3185V84.788C98.3479 85.1987 98.4725 85.4993 98.6925 85.69C98.9272 85.866 99.2132 85.954 99.5505 85.954C99.8879 85.954 100.211 85.8953 100.519 85.778C100.827 85.6607 101.054 85.5653 101.201 85.492L101.707 87.406ZM113.701 88H111.281V81.554C111.281 80.5127 111.09 79.7353 110.709 79.222C110.327 78.7087 109.792 78.452 109.103 78.452C108.663 78.452 108.215 78.5693 107.761 78.804C107.321 79.0387 106.925 79.3613 106.573 79.772C106.221 80.168 105.964 80.63 105.803 81.158V88H103.383V71.94H105.803V78.804C106.243 78.012 106.844 77.396 107.607 76.956C108.369 76.516 109.191 76.296 110.071 76.296C111.024 76.296 111.765 76.516 112.293 76.956C112.821 77.3813 113.187 77.9533 113.393 78.672C113.598 79.376 113.701 80.146 113.701 80.982V88ZM116.669 90.706C116.889 90.75 117.102 90.7867 117.307 90.816C117.527 90.8453 117.703 90.86 117.835 90.86C118.085 90.86 118.297 90.7793 118.473 90.618C118.664 90.4713 118.855 90.1927 119.045 89.782C119.236 89.3713 119.471 88.7773 119.749 88L115.019 76.494H117.549L121.069 85.536L124.193 76.494H126.525L121.311 90.662C121.077 91.3073 120.666 91.8573 120.079 92.312C119.507 92.7667 118.767 92.994 117.857 92.994C117.681 92.994 117.498 92.9793 117.307 92.95C117.117 92.9207 116.904 92.8767 116.669 92.818V90.706Z" fill="#F72585"/>
</svg>
