<svg width="18" height="24" viewBox="0 0 18 24" fill="none" xmlns="http://www.w3.org/2000/svg">
<path fill-rule="evenodd" clip-rule="evenodd" d="M8.28816 0.292042C8.47695 0.105051 8.73301 0 9.00001 0C9.26701 0 9.52307 0.105051 9.71186 0.292042C9.90066 0.479033 10.0067 0.732647 10.0067 0.997092V16.4271L16.2785 10.2102C16.4674 10.0231 16.7236 9.91802 16.9908 9.91802C17.2579 9.91802 17.5141 10.0231 17.703 10.2102C17.8919 10.3973 17.9981 10.6511 17.9981 10.9157C17.9981 11.1803 17.8919 11.434 17.703 11.6211L9.71477 19.538L9.55874 19.6627H9.51847L9.3876 19.7324H9.32719C9.28668 19.7487 9.24448 19.7604 9.20135 19.7673C9.13445 19.7747 9.06692 19.7747 9.00001 19.7673C8.9348 19.7749 8.86891 19.7749 8.8037 19.7673C8.75881 19.761 8.71486 19.7493 8.67283 19.7324H8.61243L8.48155 19.6627H8.44129C8.38772 19.6251 8.33723 19.5834 8.29028 19.538L0.29699 11.6211C0.203456 11.5285 0.129262 11.4185 0.0786416 11.2974C0.0280215 11.1764 0.00196623 11.0467 0.00196623 10.9157C0.00196623 10.7847 0.0280215 10.6549 0.0786416 10.5339C0.129262 10.4128 0.203456 10.3029 0.29699 10.2102C0.390523 10.1176 0.501564 10.0441 0.623772 9.99396C0.74598 9.94382 0.876962 9.91802 1.00924 9.91802C1.14152 9.91802 1.2725 9.94382 1.3947 9.99396C1.51691 10.0441 1.62795 10.1176 1.72149 10.2102L7.9933 16.452V0.997092C7.9933 0.732647 8.09936 0.479033 8.28816 0.292042ZM16.9933 24H1.00671C0.739715 24 0.483655 23.895 0.29486 23.708C0.106065 23.521 0 23.2674 0 23.0029C0 22.7385 0.106065 22.4848 0.29486 22.2979C0.483655 22.1109 0.739715 22.0058 1.00671 22.0058H16.9933C17.2603 22.0058 17.5163 22.1109 17.7051 22.2979C17.8939 22.4848 18 22.7385 18 23.0029C18 23.2674 17.8939 23.521 17.7051 23.708C17.5163 23.895 17.2603 24 16.9933 24Z" fill="#333333"/>
</svg>
