<svg width="27" height="25" viewBox="0 0 27 25" fill="none" xmlns="http://www.w3.org/2000/svg">
<path d="M5.92567 24.9995V8.13132H0.330047V24.9995H5.92615H5.92567ZM3.12883 5.82866C5.07977 5.82866 6.29434 4.5333 6.29434 2.91458C6.25767 1.25911 5.07976 0 3.16599 0C1.25075 0 0 1.25911 0 2.91458C0 4.5333 1.21407 5.82866 3.09216 5.82866H3.12834H3.12883ZM9.02272 24.9995H14.6178V15.5807C14.6178 15.077 14.6545 14.5724 14.8022 14.2128C15.2065 13.205 16.1273 12.162 17.6733 12.162C19.6976 12.162 20.5078 13.7087 20.5078 15.9765V24.9995H26.1029V15.3279C26.1029 10.1469 23.3428 7.73595 19.6614 7.73595C16.6431 7.73595 15.3175 9.4262 14.5812 10.5775H14.6183V8.13181H9.0232C9.09606 9.71427 9.02272 25 9.02272 25V24.9995Z" fill="#F72585"/>
</svg>
