<svg width="21" height="11" viewBox="0 0 21 11" fill="none" xmlns="http://www.w3.org/2000/svg">
<path d="M20.7348 10.7437C20.6562 10.8246 20.5613 10.8891 20.4559 10.9332C20.3505 10.9773 20.2369 11 20.1221 11C20.0073 11 19.8936 10.9773 19.7883 10.9332C19.6829 10.8891 19.588 10.8246 19.5094 10.7437L10.4943 2.0493L1.47914 10.7437C1.31665 10.9007 1.09626 10.9889 0.866459 10.9889C0.63666 10.9889 0.416273 10.9007 0.25378 10.7437C0.0912873 10.5867 4.52989e-09 10.3737 0 10.1517C-4.52989e-09 9.92962 0.0912873 9.71666 0.25378 9.55964L9.88159 0.256295C9.96017 0.175388 10.0551 0.110905 10.1605 0.0668234C10.2658 0.0227421 10.3794 0 10.4943 0C10.6091 0 10.7227 0.0227421 10.8281 0.0668234C10.9335 0.110905 11.0284 0.175388 11.107 0.256295L20.7348 9.55964C20.8185 9.63557 20.8852 9.72728 20.9308 9.82911C20.9765 9.93093 21 10.0407 21 10.1517C21 10.2626 20.9765 10.3724 20.9308 10.4742C20.8852 10.5761 20.8185 10.6678 20.7348 10.7437V10.7437Z" fill="#444444"/>
</svg>
